<svg width="14.998413" height="14.995972" viewBox="0 0 14.9984 14.996" fill="none" xmlns="http://www.w3.org/2000/svg" xmlns:xlink="http://www.w3.org/1999/xlink">
	<desc>
			Created with Pixso.
	</desc>
	<defs/>
	<path id="ionicons svg ios call" d="M14.5664 11.7451C13.7666 11.0497 12.8823 10.458 11.9343 9.98407C11.1454 9.60504 10.8563 9.61304 10.2983 10.0151C9.83337 10.3511 9.53333 10.6631 8.99841 10.5461C7.06421 9.51752 5.48145 7.93451 4.45337 6.00006C4.34033 5.46106 4.65332 5.16406 4.98438 4.70007C5.3844 4.14209 5.39832 3.85309 5.01538 3.06409C4.5437 2.11481 3.9519 1.23022 3.25439 0.432068C2.68042 -0.141907 2.55432 -0.0169067 2.23535 0.0960693C1.90979 0.233948 1.59753 0.401306 1.30237 0.596069C0.82019 0.871216 0.430176 1.28284 0.181396 1.77905C-0.041626 2.25909 -0.298584 3.15405 1.01343 5.48907C1.98145 7.27698 3.20752 8.91254 4.65234 10.3431C6.08362 11.7874 7.71899 13.0137 9.50635 13.983C11.8414 15.295 12.7354 15.037 13.2164 14.8151C13.7144 14.5687 14.1266 14.178 14.3994 13.6941C14.5941 13.399 14.7615 13.0867 14.8994 12.761C15.0154 12.4481 15.1423 12.3191 14.5664 11.7451Z" fill="#FFFFFF" fill-opacity="1.000000" fill-rule="evenodd"/>
</svg>
