<svg width="24.000000" height="24.000000" viewBox="0 0 24 24" fill="none" xmlns="http://www.w3.org/2000/svg" xmlns:xlink="http://www.w3.org/1999/xlink">
	<desc>
			Created with Pixso.
	</desc>
	<defs>
		<clipPath id="clip354_2264">
			<rect id="Icon" width="24.000000" height="24.000000" fill="white" fill-opacity="0"/>
		</clipPath>
	</defs>
	<g clip-path="url(#clip354_2264)">
		<path id="Vector" d="M20 21L20 19C20 17.9391 19.5786 16.9217 18.8284 16.1716C18.0782 15.4214 17.0609 15 16 15L8 15C6.93909 15 5.92175 15.4214 5.17163 16.1716C4.42139 16.9217 4 17.9391 4 19L4 21" stroke="#FFFFFF" stroke-opacity="1.000000" stroke-width="2.000000" stroke-linejoin="round" stroke-linecap="round"/>
		<path id="Vector" d="M12 11C9.79089 11 8 9.20914 8 7C8 4.79086 9.79089 3 12 3C14.2091 3 16 4.79086 16 7C16 9.20914 14.2091 11 12 11Z" stroke="#FFFFFF" stroke-opacity="1.000000" stroke-width="2.000000" stroke-linejoin="round"/>
	</g>
</svg>
