<svg width="25.000000" height="25.000000" viewBox="0 0 25 25" fill="none" xmlns="http://www.w3.org/2000/svg" xmlns:xlink="http://www.w3.org/1999/xlink">
	<desc>
			Created with Pixso.
	</desc>
	<defs>
		<clipPath id="clip88_40">
			<rect id="viber (1) 1" width="25.000000" height="25.000000" fill="white" fill-opacity="0"/>
		</clipPath>
	</defs>
	<rect id="viber (1) 1" width="25.000000" height="25.000000" fill="#FFFFFF" fill-opacity="0"/>
	<g clip-path="url(#clip88_40)">
		<path id="Vector" d="M23.9494 8.82324C23.9496 6.47559 23.0293 4.2627 21.3583 2.5918C19.6873 0.919922 17.474 0 15.1259 0L9.8978 0C9.89761 0 9.89761 0 9.89761 0C7.54987 0 5.33636 0.919922 3.66553 2.59082C1.99451 4.2627 1.07422 6.47559 1.07422 8.82324L1.07422 12.9336C1.07422 14.752 1.62888 16.501 2.67831 17.9912C3.60413 19.3066 4.84924 20.334 6.30093 20.9854L6.30093 23.3467C6.30093 24.5664 6.98431 25 7.56952 25C7.98761 25 8.4057 24.7939 8.81271 24.3867L11.4426 21.7568L15.126 21.7568C17.474 21.7568 19.6873 20.8369 21.3583 19.166C23.0293 17.4941 23.9496 15.2812 23.9496 12.9336L23.9494 8.82324ZM15.126 20.292L11.1393 20.292C10.9449 20.292 10.7588 20.3691 10.6215 20.5068L7.77704 23.3506C7.77341 23.3545 7.76959 23.3584 7.76578 23.3623C7.76578 23.3564 7.76578 23.3516 7.76578 23.3467L7.76578 20.4971C7.76578 20.1934 7.57828 19.9209 7.29446 19.8125C4.45023 18.7275 2.53925 15.9629 2.53925 12.9336L2.53925 8.82324C2.53925 6.86719 3.30716 5.02148 4.70142 3.62695C6.0957 2.23242 7.94104 1.46484 9.8978 1.46484L15.1259 1.46484C17.0826 1.46484 18.9282 2.23242 20.3224 3.62695C21.7169 5.02148 22.4848 6.86719 22.4846 8.82324L22.4848 12.9336C22.4846 16.9912 19.1835 20.292 15.126 20.292Z" fill="#FFFFFF" fill-opacity="1.000000" fill-rule="nonzero"/>
		<path id="Vector" d="M14.4596 11.9795C14.1737 11.6934 13.71 11.6934 13.4239 11.9795L12.8322 12.5713L10.5396 10.2783L11.1313 9.6875C11.2686 9.5498 11.3459 9.36328 11.3459 9.16895C11.3459 8.97461 11.2686 8.78906 11.1313 8.65137L8.3576 5.87793C8.22028 5.74023 8.03412 5.66309 7.83978 5.66309C7.6456 5.66309 7.45926 5.74023 7.32193 5.87793L5.38025 7.81934C4.33026 8.86914 4.33026 10.5781 5.38043 11.6289L11.4822 17.7305C11.9896 18.2383 12.6661 18.5176 13.3869 18.5176C14.1079 18.5176 14.7844 18.2383 15.2918 17.7305L17.2335 15.7891C17.3708 15.6523 17.448 15.4658 17.448 15.2715C17.448 15.0771 17.3708 14.8906 17.2335 14.7539L14.4596 11.9795ZM14.2559 16.6943C14.0253 16.9258 13.7167 17.0527 13.3869 17.0527C13.0571 17.0527 12.7485 16.9258 12.5179 16.6943L6.41632 10.5928C5.93719 10.1133 5.93701 9.33398 6.41614 8.85547L7.83978 7.43164L9.57755 9.16895L8.9859 9.76074C8.84857 9.89844 8.77133 10.084 8.77133 10.2783C8.77133 10.4727 8.84857 10.6592 8.9859 10.7969L12.3142 14.125C12.6003 14.4111 13.064 14.4111 13.3501 14.125L13.9418 13.5332L15.6795 15.2715L14.2559 16.6943Z" fill="#FFFFFF" fill-opacity="1.000000" fill-rule="nonzero"/>
		<path id="Vector" d="M12.6896 3.24023C12.285 3.24023 11.9572 3.56836 11.9572 3.97266C11.9572 4.37695 12.285 4.70508 12.6896 4.70508C14.3658 4.70508 15.9418 5.35742 17.127 6.54297C18.3124 7.72852 18.9651 9.30469 18.9651 10.9805C18.9651 11.3848 19.293 11.7129 19.6976 11.7129C20.1019 11.7129 20.43 11.3848 20.43 10.9805C20.43 8.91309 19.6249 6.96973 18.1629 5.50684C16.7009 4.04492 14.7571 3.24023 12.6896 3.24023Z" fill="#FFFFFF" fill-opacity="1.000000" fill-rule="nonzero"/>
		<path id="Vector" d="M15.8272 10.9805C15.8272 11.3848 16.1552 11.7129 16.5596 11.7129C16.9641 11.7129 17.292 11.3848 17.292 10.9805C17.292 8.44238 15.2273 6.37793 12.6896 6.37793C12.285 6.37793 11.9572 6.70605 11.9572 7.11035C11.9572 7.51465 12.285 7.84277 12.6896 7.84277C14.4197 7.84277 15.8272 9.25 15.8272 10.9805Z" fill="#FFFFFF" fill-opacity="1.000000" fill-rule="nonzero"/>
	</g>
</svg>
