<svg width="28" height="28" viewBox="0 0 28 28" fill="none" xmlns="http://www.w3.org/2000/svg">
<path d="M8.52539 8.66992L14.0004 23.4512L19.4755 8.66992H8.52539Z" fill="#EBA707"/>
<path d="M14.0004 3.07715L9.59375 7.02914H18.4071L14.0004 3.07715Z" fill="#EBA707"/>
<path d="M6.77469 8.66992H0C0.0305156 9.14702 0.201961 9.61536 0.511438 10.0074L12.1115 24.6999C12.3446 24.9951 12.6369 25.2261 12.965 25.3823L6.77469 8.66992Z" fill="#EBA707"/>
<path d="M4.59801 2.61719C3.76599 2.61719 3.00469 3.03763 2.5615 3.74189L0.493164 7.02889H7.1348L12.0541 2.61719H4.59801Z" fill="#EBA707"/>
<path d="M25.4389 3.74184C24.9958 3.03763 24.2345 2.61719 23.4024 2.61719H15.9463L20.8656 7.02889H27.5073L25.4389 3.74184Z" fill="#EBA707"/>
<path d="M21.2255 8.66992L15.0352 25.3823C15.3632 25.2261 15.6555 24.9952 15.8886 24.6999L27.4887 10.0074C27.7982 9.61536 27.9696 9.14702 28.0002 8.66992H21.2255Z" fill="#EBA707"/>
</svg>
