<?xml version="1.0" encoding="UTF-8" standalone="no"?>
<!DOCTYPE svg PUBLIC "-//W3C//DTD SVG 1.1//EN" "http://www.w3.org/Graphics/SVG/1.1/DTD/svg11.dtd">
<svg width="100%" height="100%" viewBox="0 0 2500 2500" version="1.1" xmlns="http://www.w3.org/2000/svg" xmlns:xlink="http://www.w3.org/1999/xlink" xml:space="preserve" xmlns:serif="http://www.serif.com/" style="fill-rule:evenodd;clip-rule:evenodd;stroke-linejoin:round;stroke-miterlimit:2;">
    <g transform="matrix(7.99581,0,0,7.99577,-192.044,-2169.4)">
        <path d="M175.14,510.685C126.4,510.685 86.894,471.18 86.894,422.44C86.894,373.701 126.4,334.196 175.14,334.196C190.187,334.196 204.361,337.967 216.754,344.61L207.924,354.817C198.012,350.009 186.897,347.31 175.14,347.31C133.645,347.31 100.009,380.946 100.009,422.44C100.009,463.935 133.645,497.571 175.14,497.571C216.633,497.571 250.27,463.935 250.27,422.44C250.27,411.982 248.128,402.027 244.27,392.979L253.657,382.127C259.876,394.202 263.384,407.917 263.384,422.44C263.384,471.18 223.879,510.685 175.14,510.685ZM229.987,346.031L253.122,366.063L166.648,465.912L127.984,427.249L149.622,405.622L165.042,421.031L229.987,346.031ZM282.016,439.368C282.891,433.74 287.698,428.32 287.698,422.44C287.698,416.562 282.891,411.141 282.016,405.513C281.098,399.732 283.983,393.088 282.213,387.646C280.421,382.105 274.17,378.434 271.558,373.318C268.924,368.149 269.602,360.938 266.203,356.271C262.805,351.594 255.723,350.021 251.636,345.944C247.56,341.856 245.986,334.775 241.309,331.377C236.643,327.979 229.43,328.655 224.261,326.022C219.146,323.41 215.475,317.159 209.935,315.367C204.492,313.597 197.848,316.481 192.067,315.563C186.438,314.689 181.019,309.881 175.14,309.881C169.26,309.881 163.84,314.689 158.212,315.563C152.431,316.481 145.786,313.597 140.344,315.367C134.804,317.159 131.132,323.41 126.018,326.022C120.849,328.655 113.636,327.979 108.97,331.377C104.292,334.775 102.719,341.856 98.642,345.944C94.555,350.021 87.473,351.594 84.075,356.271C80.676,360.938 81.354,368.149 78.72,373.318C76.108,378.434 69.858,382.105 68.065,387.646C66.295,393.088 69.18,399.732 68.262,405.513C67.388,411.141 62.58,416.562 62.58,422.44C62.58,428.32 67.388,433.74 68.262,439.368C69.18,445.149 66.295,451.794 68.065,457.235C69.858,462.776 76.108,466.448 78.72,471.563C81.354,476.731 80.676,483.944 84.075,488.61C87.473,493.287 94.555,494.861 98.642,498.938C102.719,503.024 104.292,510.105 108.97,513.505C113.636,516.903 120.849,516.226 126.018,518.859C131.132,521.471 134.804,527.722 140.344,529.514C145.786,531.284 152.431,528.399 158.212,529.317C163.84,530.191 169.26,535 175.14,535C181.019,535 186.438,530.191 192.067,529.317C197.848,528.399 204.492,531.284 209.935,529.514C215.475,527.722 219.146,521.471 224.261,518.859C229.43,516.226 236.643,516.903 241.309,513.505C245.986,510.105 247.56,503.024 251.636,498.938C255.723,494.861 262.805,493.287 266.203,488.61C269.602,483.944 268.924,476.731 271.558,471.563C274.17,466.448 280.421,462.776 282.213,457.235C283.983,451.794 281.098,445.149 282.016,439.368Z" style="fill:rgb(235,167,7);fill-rule:nonzero;"/>
    </g>
</svg>
