<svg width="50" height="50" viewBox="0 0 50 50" fill="none" xmlns="http://www.w3.org/2000/svg">
<path d="M49.5484 43.229C49.7634 44.0079 49.9425 44.6097 49.9783 45.07C50.05 45.5303 49.9425 45.8843 49.7634 46.1321C49.5484 46.38 49.1544 46.557 48.5812 46.6632C48.0438 46.7694 47.2557 46.8402 46.2526 46.9465C45.2137 47.0527 44.3539 47.0881 43.7807 47.1235C43.1717 47.1235 42.706 47.1235 42.3836 47.0173C42.0612 46.9465 41.8462 46.8048 41.703 46.6278C41.5597 46.4508 41.4522 46.2384 41.3805 45.9197L38.5863 37.0331L20.8175 37.5642L17.5217 47.4775C17.4143 47.867 17.271 48.1856 17.0918 48.4335C16.9127 48.7167 16.6261 48.8937 16.2321 49.1061C15.838 49.2832 15.2648 49.4248 14.5125 49.531C13.7602 49.6372 12.7571 49.7434 11.5391 49.8496C10.1778 49.9559 9.13891 50.0267 8.35078 49.9913C7.56265 49.9913 7.02529 49.8142 6.7387 49.531C6.41628 49.2478 6.30881 48.7875 6.41628 48.221C6.52375 47.6545 6.7387 46.8756 7.09694 45.8843L23.7909 1.52218C23.9342 1.13273 24.1134 0.814085 24.3283 0.566252C24.5074 0.318419 24.8657 0.1768 25.2955 0.10599C25.7613 0.035181 26.3703 0.035181 27.1226 0.141395C27.8749 0.212205 28.8779 0.353824 30.1318 0.566252C31.5648 0.77868 32.6753 0.991109 33.4992 1.13273C34.3232 1.30975 34.9322 1.48678 35.3979 1.6992C35.8278 1.91163 36.1502 2.15946 36.3652 2.4427C36.5443 2.72594 36.7234 3.11539 36.8667 3.57565L49.5126 43.229H49.5484ZM30.096 9.77148H30.0601L23.2894 29.846L36.5085 29.9522L30.096 9.77148Z" fill="white"/>
<path fill-rule="evenodd" clip-rule="evenodd" d="M18.8839 0H22.2872C22.7529 0 22.9679 0.354047 22.8246 0.814309L4.80508 48.2567C4.62596 48.7169 4.0886 49.2126 3.65871 49.071L0.57784 48.2567C0.147952 48.1504 -0.102817 47.9026 0.0404796 47.4423L17.7734 0.814309C17.9525 0.354047 18.454 0 18.9197 0L18.8839 0Z" fill="white"/>
</svg>
