<svg width="55" height="50" viewBox="0 0 55 50" fill="none" xmlns="http://www.w3.org/2000/svg">
<path d="M23.2692 29.6152H21.1538C20.8622 29.6152 20.625 29.8524 20.625 30.1441V32.7883H23.2692C23.5608 32.7883 23.798 32.5511 23.798 32.2594V30.1441C23.798 29.8524 23.5608 29.6152 23.2692 29.6152Z" fill="white"/>
<path d="M12.692 29.6152H10.5767C10.285 29.6152 10.0479 29.8524 10.0479 30.1441V38.6056C10.0479 38.8972 10.285 39.1344 10.5767 39.1344H12.692C12.9837 39.1344 13.2209 38.8972 13.2209 38.6056V30.1441C13.2209 29.8524 12.9836 29.6152 12.692 29.6152Z" fill="white"/>
<path d="M50.2403 19.0385H44.9533L32.1035 9.36773C32.8635 8.38449 33.3172 7.15333 33.3172 5.81732C33.3172 2.60971 30.7076 0 27.4999 0C24.2922 0 21.6826 2.6096 21.6826 5.81732C21.6826 7.15322 22.1363 8.38449 22.8962 9.36762L10.0464 19.0385H4.75965C2.13512 19.0385 0 21.1737 0 23.7981V44.952C0 47.5764 2.13512 49.7116 4.75965 49.7116H50.2405C52.8649 49.7116 55.0001 47.5765 55.0001 44.952V23.7981C55 21.1737 52.8649 19.0385 50.2403 19.0385ZM25.5908 11.3112C26.1892 11.5198 26.8314 11.6347 27.5 11.6347C28.1688 11.6347 28.8108 11.5198 29.4093 11.3112L39.6767 19.0385H15.3233L25.5908 11.3112ZM16.3942 38.6058C16.3942 40.647 14.7336 42.3078 12.6923 42.3078H10.577C8.53563 42.3078 6.875 40.647 6.875 38.6058V30.1443C6.875 28.1031 8.53563 26.4423 10.577 26.4423H12.6923C14.7336 26.4423 16.3942 28.103 16.3942 30.1443V38.6058ZM26.9712 32.2597C26.9712 34.3009 25.3105 35.9616 23.2692 35.9616H20.625V40.7213C20.625 41.5975 19.9146 42.3078 19.0385 42.3078C18.1624 42.3078 17.452 41.5974 17.452 40.7213V30.1443C17.452 28.1031 19.1126 26.4423 21.1539 26.4423H23.2693C25.3105 26.4423 26.9713 28.103 26.9713 30.1443V32.2597H26.9712ZM33.8462 32.7885C34.7224 32.7885 35.4327 33.4989 35.4327 34.375C35.4327 35.2512 34.7223 35.9615 33.8462 35.9615H31.202V39.1345H35.9616C36.8379 39.1345 37.5481 39.8449 37.5481 40.7211C37.5481 41.5972 36.8378 42.3076 35.9616 42.3076H29.6155C28.7392 42.3076 28.0289 41.5972 28.0289 40.7211V28.0288C28.0289 27.1526 28.7393 26.4423 29.6155 26.4423H35.9616C36.8379 26.4423 37.5481 27.1527 37.5481 28.0288C37.5481 28.905 36.8378 29.6154 35.9616 29.6154H31.202V32.7884H33.8462V32.7885ZM48.125 40.7212C48.125 41.457 47.6191 42.0962 46.903 42.2652C46.7814 42.2939 46.6588 42.3079 46.5381 42.3079C45.9478 42.3079 45.3926 41.977 45.1194 41.4308L41.7788 34.7496V40.7212C41.7788 41.5974 41.0685 42.3077 40.1923 42.3077C39.3162 42.3077 38.6058 41.5973 38.6058 40.7212V28.0288C38.6058 27.293 39.1117 26.6538 39.8278 26.4848C40.5439 26.3156 41.2823 26.6611 41.6114 27.3194L44.952 34.0005V28.0289C44.952 27.1527 45.6624 26.4424 46.5385 26.4424C47.4146 26.4424 48.125 27.1527 48.125 28.0288V40.7212Z" fill="white"/>
</svg>
