<svg width="64" height="48" viewBox="0 0 64 48" fill="none" xmlns="http://www.w3.org/2000/svg">
<path d="M40 0C28.8374 0 19.4304 7.66025 16.7594 18H8V14.75C8 13.785 7.215 13 6.25 13H1C0.44775 13 0 13.4478 0 14V34C0 34.5522 0.44775 35 1 35H6.25C7.215 35 8 34.215 8 33.25V30H16.7594C19.4304 40.3398 28.8374 48 40 48C53.2336 48 64 37.2336 64 24C64 10.7664 53.2336 0 40 0ZM6 33H2V15H6V33ZM8 28V20H16.3351C16.1159 21.3014 16 22.6372 16 24C16 25.3628 16.1159 26.6986 16.3351 28H8ZM40 46C27.8691 46 18 36.1309 18 24C18 11.8691 27.8691 2 40 2C52.1309 2 62 11.8691 62 24C62 36.1309 52.1309 46 40 46Z" fill="white"/>
<path d="M22 24C22 14.0747 30.0747 6 40 6C43.3582 6 46.6339 6.93063 49.4727 8.69113C49.9422 8.98213 50.5586 8.83762 50.8496 8.36825C51.1407 7.89887 50.9961 7.28237 50.5267 6.99137C47.3711 5.03437 43.7311 4 40 4C28.972 4 20 12.972 20 24C20 28.5925 21.5955 33.0784 24.4927 36.6312C24.6904 36.8736 24.9781 36.9994 25.2684 36.9994C25.4905 36.9994 25.7141 36.9256 25.8997 36.7742C26.3277 36.4252 26.3919 35.7952 26.0427 35.3674C23.4357 32.1704 22 28.1334 22 24Z" fill="white"/>
<path d="M57.0094 13.4742C56.7184 13.0048 56.1019 12.8602 55.6325 13.1513C55.1631 13.4423 55.0185 14.0588 55.3096 14.5282C57.0699 17.3668 58.0002 20.6422 58.0002 24C58.0002 33.9253 49.9255 42 40.0002 42C35.866 42 31.8284 40.5638 28.6311 37.9558C28.2031 37.6067 27.5731 37.6707 27.2241 38.0987C26.8751 38.5267 26.939 39.1565 27.367 39.5057C30.9201 42.4039 35.4067 44 40.0002 44C51.0282 44 60.0002 35.028 60.0002 24C60.0002 20.2694 58.966 16.6295 57.0094 13.4742Z" fill="white"/>
<path d="M53.2641 11.8314C53.4613 12.0463 53.7307 12.1551 54.0009 12.1551C54.2425 12.1551 54.4849 12.068 54.6769 11.8918C55.0838 11.5183 55.1108 10.8856 54.7373 10.4789C54.3514 10.0585 53.9428 9.64989 53.5229 9.26439C53.1162 8.89089 52.4836 8.91776 52.1101 9.32476C51.7366 9.73151 51.7635 10.3641 52.1704 10.7376C52.5484 11.0848 52.9164 11.4528 53.2641 11.8314Z" fill="white"/>
<path d="M37 19V12C37 11.4477 36.5522 11 36 11C35.4477 11 35 11.4477 35 12V19C35 19.5522 35.4477 20 36 20C36.5522 20 37 19.5522 37 19Z" fill="white"/>
<path d="M36 37C36.5522 37 37 36.5522 37 36V22.8734C38.7232 22.4283 40 20.8604 40 19V12C40 11.4477 39.5522 11 39 11C38.4477 11 38 11.4477 38 12V19C38 20.1027 37.1027 21 36 21C34.8972 21 34 20.1027 34 19V12C34 11.4477 33.5522 11 33 11C32.4477 11 32 11.4477 32 12V19C32 20.8605 33.2767 22.4283 35 22.8734V36C35 36.5522 35.4477 37 36 37Z" fill="white"/>
<path d="M42 12V36C42 36.5522 42.4477 37 43 37C43.5523 37 44 36.5522 44 36V27H47C47.5522 27 48 26.5522 48 26V16C48 13.243 45.757 11 43 11C42.4477 11 42 11.4477 42 12ZM46 16V25H44V13.172C45.1639 13.5849 46 14.6964 46 16Z" fill="white"/>
</svg>
