<svg width="82" height="43" viewBox="0 0 82 43" fill="none" xmlns="http://www.w3.org/2000/svg">
<path d="M7.86149 40.8968H5.3201V13.7219H7.14687V6.86571H74.5619V13.7219H76.2296V39.9815H73.7286V42.0826H76.2296H79.0884H81.5897V39.9815H79.0884V13.7219H80.8051V4.21929C80.8051 1.889 79.0978 0 76.9929 0H4.50666C2.40138 0 0.694773 1.889 0.694773 4.21929V13.7219H2.46165V40.8968H0V43H7.86186V40.8968H7.86149ZM72.8946 2.66176C73.5512 2.66176 74.0854 3.25262 74.0854 3.98021C74.0854 4.70821 73.5512 5.29866 72.8946 5.29866C72.2373 5.29866 71.7035 4.7078 71.7035 3.98021C71.7035 3.25262 72.2373 2.66176 72.8946 2.66176Z" fill="white"/>
<path fill-rule="evenodd" clip-rule="evenodd" d="M34.8208 21.3259C34.4191 20.883 34.1167 20.2665 34.1167 19.4266C34.1167 16.7089 36.9822 15.7704 38.3737 17.3039C40.2734 19.3967 38.6013 22.1948 36.9396 22.1948C35.9989 22.1948 35.5953 22.1811 34.8204 21.3264L34.8208 21.3259ZM30.6817 22.7674C31.7149 21.8629 31.7887 22.2864 32.8952 23.2783C33.3294 23.6674 33.7562 24.0353 34.1762 24.4497C34.5846 24.8524 34.9911 25.2274 35.4074 25.5867C35.8368 25.9567 36.2444 26.412 36.6974 26.7481L46.1528 18.0174C47.1227 17.0648 47.4678 17.7186 48.2165 18.2834L52.4143 21.6723C52.7857 21.9744 53.1248 22.2135 53.4992 22.5255C53.8589 22.825 54.1835 23.0699 54.5245 23.355C54.7719 23.5622 57.9441 26.076 58.2488 26.1547V28.744C58.2488 28.4229 53.9207 25.1773 53.6025 24.9113L47.0228 19.6052C46.8101 19.8098 46.6563 19.9665 46.4118 20.179C46.1865 20.3746 45.9626 20.5826 45.753 20.7889C44.9437 21.5866 43.9925 22.3498 43.2112 23.154L38.1034 27.8573C37.8956 28.0379 37.6778 28.2372 37.4868 28.4249C37.275 28.6329 37.0732 28.8907 36.6977 28.8907C36.2972 28.8907 36.1639 28.7183 35.8791 28.4577C35.6728 28.2691 35.4703 28.0864 35.2666 27.8854L31.5352 24.4265C31.0609 24.7779 29.4835 26.4079 28.8733 26.9267L27.2719 28.4577C27.1102 28.6019 27.0836 28.6039 26.917 28.7792C26.603 29.1098 24.0705 31.2255 24.0705 31.5118V28.8331C24.4988 28.7067 29.8777 23.4706 30.6814 22.767L30.6817 22.7674ZM9.52637 34.6832C9.52637 37.0131 11.233 38.9025 13.3379 38.9025L68.0288 38.9021C70.1337 38.9021 71.841 37.0131 71.841 34.6832V16.8846C71.841 14.5543 72.0548 11.8847 72.3176 10.9217C72.5796 9.95878 72.7941 9.17773 72.7941 9.17773H13.3383C11.2334 9.17773 9.52674 11.0667 9.52674 13.397V34.6832H9.52637Z" fill="white"/>
<path fill-rule="evenodd" clip-rule="evenodd" d="M35.8105 19.3372C35.8105 20.5484 36.8744 20.5364 37.2877 20.0793C37.7006 19.6223 37.7114 18.4443 36.6172 18.4443C36.1639 18.4443 35.8105 18.8355 35.8105 19.3372Z" fill="white"/>
</svg>
