<svg width="63" height="63" viewBox="0 0 63 63" fill="none" xmlns="http://www.w3.org/2000/svg">
<path d="M31.5 3.9375V17.7188C31.5 19.2838 32.1212 20.7849 33.2271 21.8923C34.333 22.9997 35.8333 23.6229 37.3984 23.625H51.1796V27.7003C49.1348 28.0544 47.2502 29.0339 45.7853 30.5038L28.9052 47.3839C26.9983 49.2899 25.6454 51.6786 24.9913 54.2942L23.8022 59.0546H17.7188C16.1523 59.0546 14.65 58.4324 13.5424 57.3247C12.4348 56.2171 11.8125 54.7148 11.8125 53.1484V9.84375C11.8125 8.27732 12.4348 6.77504 13.5424 5.6674C14.65 4.55976 16.1523 3.9375 17.7188 3.9375H31.5ZM51.1796 31.7363C50.1947 32.0273 49.2985 32.5607 48.573 33.2876L31.6969 50.1637C30.2962 51.5652 29.3027 53.3208 28.8225 55.2431L27.6294 60.0114C27.5291 60.4132 27.5344 60.8341 27.6447 61.2332C27.755 61.6323 27.9667 61.9962 28.2591 62.2894C28.5515 62.5826 28.9148 62.7952 29.3136 62.9066C29.7124 63.018 30.1333 63.0244 30.5353 62.9252L35.3036 61.7321C37.226 61.2521 38.9817 60.2585 40.383 58.8577L57.267 41.9738C58.2343 41.0085 58.8521 39.7483 59.0226 38.3925C59.1932 37.0366 58.9068 35.6627 58.2087 34.4879C57.5106 33.3132 56.4408 32.4048 55.1684 31.9064C53.896 31.408 52.4938 31.3481 51.1836 31.7363H51.1796ZM35.4296 4.92188V17.7188C35.4296 18.2409 35.637 18.7417 36.0063 19.1109C36.3755 19.4801 36.8762 19.6875 37.3984 19.6875H50.1953L35.4296 4.92188Z" fill="white"/>
</svg>
