<svg width="28" height="28" viewBox="0 0 28 28" fill="none" xmlns="http://www.w3.org/2000/svg">
<g clip-path="url(#clip0_1870_1395)">
<path d="M16.1667 15.7395C16.1667 17.9436 14.3733 19.737 12.169 19.737C9.96482 19.737 8.17143 17.9436 8.17143 15.7395C8.17143 13.5351 9.96482 11.7417 12.169 11.7417C12.9827 11.7417 13.7401 11.9869 14.3723 12.4061L16.0882 10.6901C15.005 9.84743 13.6446 9.34473 12.169 9.34473C8.64293 9.34473 5.77441 12.2134 5.77441 15.7395C5.77441 19.2655 8.64293 22.134 12.169 22.134C15.695 22.134 18.5637 19.2655 18.5637 15.7395C18.5637 14.2638 18.061 12.9034 17.2183 11.8202L15.5023 13.5362C15.9216 14.1683 16.1667 14.9257 16.1667 15.7395Z" fill="#EBA707"/>
<path d="M11.6041 15.1746L13.2038 13.5748C12.8904 13.4243 12.5394 13.3398 12.169 13.3398C10.8461 13.3398 9.76953 14.4164 9.76953 15.7396C9.76953 17.0627 10.8459 18.1391 12.169 18.1391C13.4922 18.1391 14.5688 17.0627 14.5688 15.7396C14.5688 15.3692 14.4843 15.0182 14.3339 14.7048L12.734 16.3045L11.6041 15.1746Z" fill="#EBA707"/>
<path d="M20.1139 8.98731L20.0632 8.97545L18.3549 10.6837C19.4837 12.0622 20.1618 13.823 20.1618 15.7395C20.1618 20.1466 16.5764 23.7321 12.1692 23.7321C7.762 23.7321 4.17667 20.1466 4.17667 15.7395C4.17667 11.3323 7.76221 7.74677 12.1692 7.74677C14.0858 7.74677 15.8465 8.4251 17.225 9.55369L18.9333 7.8454L18.9214 7.79484L18.3832 5.49146C16.57 4.38804 14.4426 3.75195 12.1692 3.75195C5.55932 3.75175 0.181641 9.12943 0.181641 15.7395C0.181641 22.3494 5.55932 27.7271 12.1692 27.7271C18.7793 27.7271 24.157 22.3494 24.157 15.7395C24.157 13.4661 23.5209 11.3388 22.4173 9.5256L20.1139 8.98731Z" fill="#EBA707"/>
<path d="M22.9219 8.00221L27.4544 3.46972L25.1926 2.71587L24.4387 0.454102L19.9062 4.98659L20.4776 7.43084L22.9219 8.00221Z" fill="#EBA707"/>
</g>
<defs>
<clipPath id="clip0_1870_1395">
<rect width="27.2727" height="27.2727" fill="white" transform="translate(0.181641 0.454102)"/>
</clipPath>
</defs>
</svg>
