<svg width="25.000000" height="25.000000" viewBox="0 0 25 25" fill="none" xmlns="http://www.w3.org/2000/svg" xmlns:xlink="http://www.w3.org/1999/xlink">
	<desc>
			Created with Pixso.
	</desc>
	<defs>
		<clipPath id="clip88_38">
			<rect id="telegram (3) 1" width="25.000000" height="25.000000" fill="white" fill-opacity="0"/>
		</clipPath>
	</defs>
	<rect id="telegram (3) 1" width="25.000000" height="25.000000" fill="#FFFFFF" fill-opacity="0"/>
	<g clip-path="url(#clip88_38)">
		<path id="Vector" d="M24.614 2.4834C24.3086 2.11035 23.8512 1.9043 23.326 1.9043C23.0404 1.9043 22.7379 1.96484 22.427 2.08301L1.26498 10.1611C0.141937 10.5898 -0.00930786 11.2334 0.000427246 11.5781C0.0101624 11.9238 0.197632 12.5576 1.3432 12.9219C1.35007 12.9238 1.35693 12.9258 1.3638 12.9277L5.75336 14.1836L8.12726 20.9727C8.45093 21.8975 9.17743 22.4727 10.0235 22.4727C10.557 22.4727 11.0817 22.249 11.541 21.8262L14.2561 19.3262L18.1942 22.4971C18.1946 22.498 18.1952 22.498 18.1956 22.498L18.2329 22.5283C18.2364 22.5312 18.24 22.5342 18.2434 22.5371C18.6812 22.876 19.159 23.0557 19.6257 23.0557L19.6259 23.0557C20.5378 23.0557 21.2639 22.3809 21.4754 21.3359L24.9428 4.21484C25.0821 3.52734 24.9653 2.91309 24.614 2.4834ZM7.22183 13.9453L15.6906 9.61914L10.4174 15.2217C10.331 15.3135 10.2698 15.4258 10.2396 15.5488L9.22284 19.667L7.22183 13.9453ZM10.5486 20.749C10.5135 20.7812 10.4782 20.8096 10.443 20.8359L11.3863 17.0156L13.1024 18.3975L10.5486 20.749ZM23.5071 3.92383L20.0398 21.0459C20.0064 21.209 19.8998 21.5908 19.6257 21.5908C19.4903 21.5908 19.3201 21.5166 19.146 21.3828L14.6836 17.79C14.683 17.7891 14.6822 17.7881 14.6815 17.7881L12.0262 15.6504L19.652 7.54688C19.8961 7.28711 19.9183 6.89062 19.7045 6.60547C19.4905 6.32031 19.1027 6.23047 18.7855 6.39258L6.24316 12.8008L1.79391 11.5273L22.9494 3.45215C23.1282 3.38379 23.2529 3.36914 23.326 3.36914C23.3708 3.36914 23.4505 3.37402 23.4801 3.41113C23.519 3.45801 23.5686 3.62012 23.5071 3.92383Z" fill="#FFFFFF" fill-opacity="1.000000" fill-rule="nonzero"/>
	</g>
</svg>
