<svg width="34.000000" height="34.000977" viewBox="0 0 34 34.001" fill="none" xmlns="http://www.w3.org/2000/svg" xmlns:xlink="http://www.w3.org/1999/xlink">
	<desc>
			Created with Pixso.
	</desc>
	<defs/>
	<path id="path" d="M20.4619 23.6787C14.8701 23.6787 10.3223 19.1299 10.3223 13.5391C10.3223 7.94727 14.8701 3.39844 20.4619 3.39844C26.0527 3.39844 30.6016 7.94727 30.6016 13.5391C30.6016 19.1299 26.0527 23.6787 20.4619 23.6787ZM20.4619 0C12.9961 0 6.92285 6.07324 6.92285 13.5391C6.92285 16.6602 7.98828 19.5361 9.76953 21.8281L0.498047 31.0996C-0.166016 31.7637 -0.166016 32.8398 0.498047 33.5029C0.830078 33.835 1.26465 34.001 1.69922 34.001C2.13477 34.001 2.56934 33.835 2.90137 33.5029L12.1729 24.2314C14.4648 26.0127 17.3408 27.0771 20.4619 27.0771C27.9268 27.0771 34 21.0039 34 13.5391C34 6.07324 27.9268 0 20.4619 0Z" fill="#FFFFFF" fill-opacity="1.000000" fill-rule="nonzero"/>
	<path id="path" d="M10.3223 13.5391C10.3223 7.94727 14.8701 3.39844 20.4619 3.39844C26.0527 3.39844 30.6016 7.94727 30.6016 13.5391C30.6016 19.1299 26.0527 23.6787 20.4619 23.6787C14.8701 23.6787 10.3223 19.1299 10.3223 13.5391ZM6.92285 13.5391C6.92285 16.6602 7.98828 19.5361 9.76953 21.8281L0.498047 31.0996C-0.166016 31.7637 -0.166016 32.8398 0.498047 33.5029C0.830078 33.835 1.26465 34.001 1.69922 34.001C2.13477 34.001 2.56934 33.835 2.90137 33.5029L12.1729 24.2314C14.4648 26.0127 17.3408 27.0771 20.4619 27.0771C27.9268 27.0771 34 21.0039 34 13.5391C34 6.07324 27.9268 0 20.4619 0C12.9961 0 6.92285 6.07324 6.92285 13.5391Z" stroke="#000000" stroke-opacity="0" stroke-width="4.166670" stroke-linejoin="round"/>
</svg>
