<svg width="32" height="32" viewBox="0 0 32 32" fill="none" xmlns="http://www.w3.org/2000/svg">
<g clip-path="url(#clip0_1870_1412)">
<path d="M4.25609 7.64999L6.168 8.75344C6.3388 8.85339 6.55 8.85446 6.72161 8.75586C6.89348 8.65727 6.99909 8.47408 6.99855 8.27607C6.99828 8.07806 6.89187 7.89568 6.71972 7.79762L4.80782 6.69417C4.54435 6.54439 4.20895 6.63544 4.05728 6.8981C3.90588 7.16077 3.99451 7.49644 4.25609 7.64999Z" fill="#EBA707"/>
<path d="M6.16827 18.8325L4.25637 19.936C4.08422 20.034 3.97781 20.2164 3.97754 20.4144C3.977 20.6124 4.08261 20.7956 4.25448 20.8942C4.42609 20.9928 4.63729 20.9917 4.80809 20.8918L6.72 19.7883C6.89214 19.6903 6.99855 19.5079 6.99882 19.3099C6.99936 19.1119 6.89376 18.9287 6.72188 18.8301C6.55028 18.7315 6.33907 18.7326 6.16827 18.8325Z" fill="#EBA707"/>
<path d="M27.7434 19.936L25.8315 18.8325C25.6607 18.7326 25.4495 18.7315 25.2779 18.8301C25.106 18.9287 25.0004 19.1119 25.001 19.3099C25.0012 19.5079 25.1077 19.6903 25.2798 19.7883L27.1917 20.8918C27.3625 20.9917 27.5737 20.9928 27.7453 20.8942C27.9172 20.7956 28.0228 20.6124 28.0223 20.4144C28.022 20.2164 27.9156 20.034 27.7434 19.936Z" fill="#EBA707"/>
<path d="M25.5566 8.82789C25.6536 8.82816 25.7487 8.80257 25.8325 8.75408L27.7444 7.65063C27.9165 7.55257 28.0229 7.37019 28.0232 7.17218C28.0237 6.97418 27.9181 6.79099 27.7465 6.69239C27.5746 6.59379 27.3634 6.59487 27.1926 6.69481L25.2807 7.79826C25.0647 7.92326 24.9591 8.17784 25.0237 8.41895C25.0884 8.66006 25.3071 8.82789 25.5566 8.82789Z" fill="#EBA707"/>
<path d="M21.2418 4.71545C21.5058 4.86793 21.843 4.77741 21.9955 4.51367L23.099 2.60176C23.2488 2.33829 23.1577 2.00289 22.895 1.85122C22.6324 1.69982 22.2967 1.78845 22.1432 2.05004L21.0397 3.96195C20.8875 4.22568 20.978 4.56324 21.2418 4.71545Z" fill="#EBA707"/>
<path d="M16 3.31034C16.3047 3.31034 16.5517 3.06331 16.5517 2.75862V0.551724C16.5517 0.247037 16.3047 0 16 0C15.6953 0 15.4482 0.247037 15.4482 0.551724V2.75862C15.4482 3.06331 15.6953 3.31034 16 3.31034Z" fill="#EBA707"/>
<path d="M10.0047 4.51367C10.1027 4.68581 10.2851 4.79222 10.4831 4.79249C10.6811 4.79303 10.8643 4.68743 10.9629 4.51555C11.0615 4.34395 11.0604 4.13274 10.9605 3.96194L9.85702 2.05004C9.70347 1.78845 9.3678 1.69982 9.10514 1.85122C8.84247 2.00289 8.75142 2.33829 8.9012 2.60176L10.0047 4.51367Z" fill="#EBA707"/>
<path d="M5.51738 13.7929C5.51738 13.4882 5.27034 13.2412 4.96565 13.2412H2.75876C2.45407 13.2412 2.20703 13.4882 2.20703 13.7929C2.20703 14.0976 2.45407 14.3447 2.75876 14.3447H4.96565C5.27034 14.3447 5.51738 14.0976 5.51738 13.7929Z" fill="#EBA707"/>
<path d="M29.241 13.2412H27.0341C26.7295 13.2412 26.4824 13.4882 26.4824 13.7929C26.4824 14.0976 26.7295 14.3447 27.0341 14.3447H29.241C29.5457 14.3447 29.7928 14.0976 29.7928 13.7929C29.7928 13.4882 29.5457 13.2412 29.241 13.2412Z" fill="#EBA707"/>
<path d="M18.7585 25.9307H13.2412V27.0635C14.0456 27.0425 15.6135 27.0479 18.7585 27.0635V25.9307Z" fill="#EBA707"/>
<path d="M18.7585 28.1656C16.7948 28.1575 14.2999 28.1502 13.2412 28.1569V29.241H18.7585V28.1656Z" fill="#EBA707"/>
<path d="M14.3447 30.3447C14.3447 31.2588 15.0858 31.9999 15.9999 31.9999C16.914 31.9999 17.6551 31.2588 17.6551 30.3447H14.3447Z" fill="#EBA707"/>
<path d="M20.0948 20.9841C23.3553 19.1282 24.9599 15.3112 24.004 11.6835C23.0485 8.05552 19.7718 5.52427 16.0202 5.51565C12.2683 5.50703 8.98033 8.02346 8.00808 11.6468C7.03583 15.2705 8.62284 19.0946 11.8747 20.9653C12.4949 21.3246 12.9491 21.9133 13.1393 22.6045L18.854 22.6204C19.0318 21.9308 19.4787 21.3413 20.0948 20.9841ZM14.3448 18.7584C14.1985 18.7584 14.0582 18.7002 13.9547 18.5967L10.8338 15.4755C10.6245 15.2592 10.6274 14.9149 10.8402 14.7021C11.0531 14.4892 11.3974 14.4863 11.6137 14.6956L14.3448 17.4265L20.1964 11.5744C20.4119 11.3589 20.7616 11.3589 20.9771 11.5744C21.1926 11.7899 21.1926 12.1396 20.9771 12.3551L14.7349 18.5967C14.6315 18.7002 14.4911 18.7584 14.3448 18.7584Z" fill="#EBA707"/>
<path d="M18.7585 23.7227L13.2412 23.709V24.8272H18.7585V23.7227Z" fill="#EBA707"/>
</g>
<defs>
<clipPath id="clip0_1870_1412">
<rect width="32" height="32" fill="white"/>
</clipPath>
</defs>
</svg>
