<svg width="32" height="32" viewBox="0 0 32 32" fill="none" xmlns="http://www.w3.org/2000/svg">
<g clip-path="url(#clip0_1870_1354)">
<path d="M0.893714 18.3126L2.98192 18.6548C3.31184 20.2538 3.94322 21.7754 4.84232 23.1382L3.6057 24.8641C3.34911 25.2134 3.35352 25.6901 3.61656 26.0346C3.92837 26.4158 4.2597 26.7805 4.60914 27.1275C4.96169 27.4806 5.32509 27.806 5.69936 28.1206C6.04408 28.3842 6.5214 28.3886 6.87095 28.1315L8.59575 26.8943C9.95726 27.7939 11.4778 28.4257 13.0759 28.7558L13.4176 30.8456C13.4827 31.2731 13.8238 31.6054 14.2529 31.6592C14.5501 31.6928 14.8495 31.7134 15.1554 31.7286C15.304 31.7359 15.4491 31.6822 15.5572 31.5801C15.6653 31.4779 15.727 31.3361 15.7282 31.1873V26.8406C15.7266 26.5476 15.4939 26.3081 15.201 26.2982C9.71988 26.0141 5.42142 21.487 5.42142 15.9985C5.42142 10.5101 9.71988 5.98299 15.201 5.69884C15.4939 5.68892 15.7266 5.4495 15.7282 5.15644V0.813509C15.7275 0.664849 15.6661 0.522909 15.5583 0.420496C15.4505 0.318083 15.3055 0.264173 15.157 0.271102C14.8522 0.283753 14.5508 0.305117 14.2528 0.335091C13.8237 0.393567 13.4839 0.727158 13.4176 1.15518L13.0758 3.24502C11.4778 3.57557 9.95731 4.20747 8.5957 5.10704L6.8709 3.86932C6.52135 3.61215 6.04403 3.61656 5.69931 3.88018C5.31921 4.19241 4.95533 4.5239 4.60909 4.87329C4.25702 5.21775 3.92559 5.58268 3.61651 5.96619C3.35237 6.31112 3.34796 6.78906 3.60564 7.13882L4.84226 8.86473C3.94338 10.2271 3.312 11.748 2.98187 13.3465L0.893661 13.6882C0.466056 13.7535 0.13383 14.0948 0.0800776 14.5241C-0.0266925 15.4974 -0.0266925 16.4796 0.0800776 17.4529C0.128318 17.8893 0.460649 18.2404 0.893714 18.3126Z" fill="#EBA707"/>
<path d="M15.2094 7.88031C10.9244 8.15175 7.58789 11.7063 7.58789 15.9999C7.58789 20.2935 10.9244 23.848 15.2094 24.1194C15.3457 24.1251 15.4784 24.0746 15.5764 23.9796C15.6744 23.8846 15.7292 23.7536 15.7279 23.6172V8.38256C15.7292 8.24608 15.6745 8.11511 15.5764 8.02015C15.4784 7.92519 15.3457 7.87464 15.2094 7.88031Z" fill="#EBA707"/>
<path d="M19.5244 8.4074H16.8125V9.49217H19.5244C20.422 9.48949 21.1489 8.76257 21.1516 7.865V4.51087C21.8988 4.24673 22.347 3.4827 22.213 2.70161C22.0789 1.92052 21.4017 1.34961 20.6092 1.34961C19.8167 1.34961 19.1395 1.92052 19.0054 2.70161C18.8714 3.4827 19.3196 4.24673 20.0668 4.51087V7.865C20.0668 8.16457 19.824 8.4074 19.5244 8.4074Z" fill="#EBA707"/>
<path d="M16.8125 11.661H22.2364C22.536 11.661 22.7788 11.4182 22.7788 11.1186C22.7788 10.819 22.536 10.5762 22.2364 10.5762H16.8125V11.661Z" fill="#EBA707"/>
<path d="M16.8125 23.5936H19.5244C19.824 23.5936 20.0668 23.8364 20.0668 24.136V27.4901C19.3197 27.7542 18.8715 28.5183 19.0055 29.2993C19.1395 30.0804 19.8167 30.6513 20.6092 30.6513C21.4017 30.6513 22.079 30.0804 22.213 29.2993C22.347 28.5183 21.8988 27.7542 21.1516 27.4901V24.136C21.149 23.2384 20.4221 22.5115 19.5245 22.5088H16.8126V23.5936H16.8125Z" fill="#EBA707"/>
<path d="M24.9483 18.1699H16.8125V19.2547H24.9483C25.2479 19.2547 25.4908 19.4975 25.4908 19.7971V22.6089C24.7436 22.873 24.2954 23.637 24.4294 24.4181C24.5634 25.1992 25.2406 25.7701 26.0332 25.7701C26.8256 25.7701 27.5029 25.1992 27.6369 24.4181C27.7709 23.637 27.3228 22.873 26.5756 22.6089V19.7971C26.5728 18.8995 25.8459 18.1726 24.9483 18.1699Z" fill="#EBA707"/>
<path d="M30.3723 14.373C29.6852 14.3759 29.0739 14.81 28.8449 15.4578H16.8125V16.5426H28.8449C29.122 17.3207 29.939 17.7669 30.7435 17.5796C31.548 17.3923 32.0838 16.6312 31.9888 15.8107C31.8939 14.9902 31.1982 14.3716 30.3723 14.373Z" fill="#EBA707"/>
<path d="M22.7788 20.8823C22.7788 20.5827 22.536 20.3398 22.2364 20.3398H16.8125V21.4246H22.2364C22.536 21.4247 22.7788 21.1818 22.7788 20.8823Z" fill="#EBA707"/>
<path d="M26.5755 12.2035V9.39173C27.3227 9.12759 27.7709 8.36356 27.6369 7.58247C27.5029 6.80138 26.8257 6.23047 26.0331 6.23047C25.2407 6.23047 24.5634 6.80138 24.4294 7.58247C24.2954 8.36356 24.7436 9.12759 25.4907 9.39173V12.2035C25.4907 12.5031 25.2479 12.7459 24.9483 12.7459H16.8125V13.8307H24.9483C25.846 13.8279 26.5729 13.101 26.5755 12.2035Z" fill="#EBA707"/>
</g>
<defs>
<clipPath id="clip0_1870_1354">
<rect width="32" height="32" fill="white"/>
</clipPath>
</defs>
</svg>
