<svg width="24.000000" height="24.000000" viewBox="0 0 24 24" fill="none" xmlns="http://www.w3.org/2000/svg" xmlns:xlink="http://www.w3.org/1999/xlink">
	<desc>
			Created with Pixso.
	</desc>
	<defs>
		<clipPath id="clip354_2274">
			<rect id="Icon" width="24.000000" height="24.000000" fill="white" fill-opacity="0"/>
		</clipPath>
	</defs>
	<g clip-path="url(#clip354_2274)">
		<path id="Vector" d="M9 22C8.44775 22 8 21.5523 8 21C8 20.4477 8.44775 20 9 20C9.55225 20 10 20.4477 10 21C10 21.5523 9.55225 22 9 22Z" stroke="#FFFFFF" stroke-opacity="1.000000" stroke-width="2.000000" stroke-linejoin="round"/>
		<path id="Vector" d="M20 22C19.4478 22 19 21.5523 19 21C19 20.4477 19.4478 20 20 20C20.5522 20 21 20.4477 21 21C21 21.5523 20.5522 22 20 22Z" stroke="#FFFFFF" stroke-opacity="1.000000" stroke-width="2.000000" stroke-linejoin="round"/>
		<path id="Vector" d="M1 1L5 1L7.68005 14.39C7.77148 14.8504 8.02185 15.264 8.38757 15.5583C8.75317 15.8526 9.21069 16.009 9.68005 16L19.4 16C19.8693 16.009 20.3268 15.8526 20.6925 15.5583C21.0581 15.264 21.3086 14.8504 21.4 14.39L23 6L6 6" stroke="#FFFFFF" stroke-opacity="1.000000" stroke-width="2.000000" stroke-linejoin="round" stroke-linecap="round"/>
	</g>
</svg>
