<svg width="51" height="50" viewBox="0 0 51 50" fill="none" xmlns="http://www.w3.org/2000/svg">
<path d="M33.0557 33.5547V49.9995H40.6113V33.5547H33.0557ZM36.8335 41.2934C36.8335 41.8275 36.4104 42.2608 35.889 42.2608C35.3676 42.2608 34.9446 41.8275 34.9446 41.2934V40.3261C34.9446 39.7921 35.3676 39.3588 35.889 39.3588C36.4104 39.3588 36.8335 39.7921 36.8335 40.3261V41.2934Z" fill="white"/>
<path d="M40.5438 0H10.4552C9.93379 0 9.51074 0.4333 9.51074 0.967345V9.37168C9.51074 9.90572 9.93379 10.339 10.4552 10.339H40.5438C41.0652 10.339 41.4883 9.90572 41.4883 9.37168V0.967345C41.4883 0.4333 41.0652 0 40.5438 0V0ZM15.493 6.42953C15.493 6.76209 15.4311 7.05126 15.3072 7.30219C15.182 7.55126 15.0149 7.75928 14.8022 7.92719C14.5882 8.09324 14.3409 8.21963 14.0568 8.30452C13.7726 8.38941 13.4684 8.43092 13.1442 8.43092C12.9252 8.43092 12.723 8.41273 12.534 8.37588C12.3468 8.3395 12.1811 8.29613 12.0376 8.24435C11.8937 8.19445 11.7735 8.14128 11.6765 8.08484C11.5795 8.0284 11.5108 7.9785 11.4675 7.93699C11.4256 7.89361 11.3955 7.83251 11.3773 7.75275C11.3591 7.673 11.3505 7.56012 11.3505 7.4104C11.3505 7.30919 11.3537 7.2257 11.3605 7.15761C11.3673 7.08951 11.3773 7.03447 11.3924 6.99156C11.4074 6.95005 11.4274 6.9202 11.4511 6.90201C11.4762 6.88382 11.5044 6.87543 11.5381 6.87543C11.5832 6.87543 11.6483 6.90201 11.7321 6.95705C11.8159 7.01022 11.9224 7.06992 12.0531 7.13475C12.1834 7.19958 12.3405 7.25928 12.5231 7.31246C12.7034 7.36749 12.9142 7.39408 13.1533 7.39408C13.3104 7.39408 13.4507 7.37589 13.5745 7.33904C13.6998 7.3008 13.8054 7.24949 13.8924 7.18139C13.9794 7.1133 14.0445 7.03027 14.0914 6.93046C14.1365 6.83065 14.1597 6.71918 14.1597 6.59651C14.1597 6.45332 14.1214 6.33065 14.0427 6.22944C13.9639 6.12636 13.8619 6.03681 13.7348 5.95705C13.6096 5.8773 13.4657 5.80267 13.3054 5.73271C13.1465 5.66275 12.9812 5.58998 12.8104 5.51163C12.6401 5.43374 12.4743 5.34558 12.3154 5.24577C12.1551 5.14782 12.0112 5.02982 11.886 4.89176C11.7589 4.7537 11.6569 4.59092 11.5782 4.40156C11.4994 4.21359 11.4611 3.98785 11.4611 3.72526C11.4611 3.42442 11.518 3.15856 11.6301 2.92909C11.7421 2.70148 11.8942 2.51211 12.085 2.36053C12.2772 2.20941 12.5012 2.09607 12.7603 2.02144C13.0194 1.94682 13.2954 1.90997 13.5859 1.90997C13.7348 1.90997 13.8851 1.92163 14.0354 1.94495C14.1856 1.96641 14.3264 1.99812 14.4566 2.03637C14.5868 2.07648 14.7025 2.11939 14.804 2.1679C14.9042 2.2178 14.9712 2.25745 15.0049 2.29103C15.0367 2.32275 15.0581 2.35073 15.07 2.37265C15.0818 2.39597 15.0918 2.42583 15.1 2.46407C15.1082 2.50045 15.1132 2.54709 15.1169 2.60539C15.1201 2.66183 15.1219 2.73179 15.1219 2.81668C15.1219 2.90996 15.1201 2.98972 15.1151 3.05455C15.1101 3.11938 15.1019 3.17256 15.09 3.21593C15.0782 3.25744 15.0618 3.28916 15.0418 3.30735C15.0199 3.32741 14.9917 3.3372 14.9548 3.3372C14.9197 3.3372 14.8628 3.31388 14.7845 3.2691C14.7057 3.22433 14.6091 3.17442 14.4953 3.11938C14.3801 3.06621 14.248 3.01817 14.0973 2.9748C13.947 2.93002 13.7831 2.9081 13.6023 2.9081C13.4621 2.9081 13.34 2.92489 13.2344 2.95987C13.1305 2.99299 13.044 3.04149 12.9734 3.10119C12.9033 3.1609 12.8496 3.23272 12.8163 3.31714C12.7813 3.40203 12.7644 3.49158 12.7644 3.58487C12.7644 3.72432 12.8027 3.84559 12.8796 3.94727C12.9566 4.05035 13.06 4.14177 13.1888 4.22152C13.3177 4.29988 13.4648 4.37451 13.6287 4.44447C13.7908 4.51443 13.958 4.58906 14.1287 4.66555C14.299 4.74391 14.4662 4.83159 14.6283 4.93141C14.7922 5.03122 14.9375 5.14922 15.0663 5.28728C15.1934 5.42534 15.2972 5.58625 15.3755 5.77422C15.4543 5.96032 15.4926 6.17953 15.4926 6.43233L15.493 6.42953ZM21.1857 2.54383C21.1857 2.63851 21.1825 2.71827 21.1739 2.78636C21.1657 2.85259 21.1538 2.90623 21.137 2.94588C21.1201 2.98739 21.1001 3.01724 21.075 3.03543C21.0518 3.05549 21.0231 3.06528 20.9949 3.06528H19.4102V8.14594C19.4102 8.17766 19.4002 8.20751 19.3783 8.23409C19.3565 8.25881 19.3214 8.28073 19.2731 8.29706C19.2249 8.31198 19.1579 8.32551 19.0741 8.3353C18.9903 8.3451 18.887 8.35023 18.7631 8.35023C18.6392 8.35023 18.5359 8.3451 18.4521 8.3353C18.3683 8.32551 18.3018 8.31198 18.2531 8.29706C18.2048 8.28027 18.1693 8.25881 18.1479 8.23409C18.126 8.20751 18.116 8.17766 18.116 8.14594V3.06528H16.5313C16.4994 3.06528 16.4712 3.05549 16.4475 3.03543C16.4256 3.01724 16.4056 2.98739 16.3888 2.94588C16.3737 2.90577 16.3605 2.85259 16.3519 2.78636C16.3437 2.71827 16.34 2.63851 16.34 2.54383C16.34 2.44728 16.3432 2.36426 16.3519 2.29616C16.3601 2.22807 16.3737 2.17303 16.3888 2.13338C16.4056 2.09187 16.4256 2.06342 16.4475 2.04523C16.4707 2.02704 16.4994 2.01864 16.5313 2.01864H20.9949C21.0236 2.01864 21.05 2.02704 21.075 2.04523C21.1001 2.06342 21.1201 2.09187 21.137 2.13338C21.1538 2.17349 21.1652 2.22807 21.1739 2.29616C21.1821 2.36426 21.1857 2.44728 21.1857 2.54383ZM27.9663 5.09652C27.9663 5.61844 27.9012 6.08532 27.7709 6.49763C27.6407 6.90994 27.4467 7.26022 27.1876 7.54613C26.9303 7.83344 26.6111 8.05312 26.2313 8.20424C25.8501 8.35536 25.4102 8.43045 24.9107 8.43045C24.4175 8.43045 23.9881 8.36562 23.622 8.23782C23.254 8.11003 22.9485 7.91553 22.7026 7.65107C22.4585 7.38848 22.2745 7.05453 22.1525 6.64875C22.0304 6.24343 21.9685 5.76303 21.9685 5.20799C21.9685 4.6996 22.0336 4.24065 22.1643 3.83347C22.2945 3.42629 22.4885 3.08067 22.7477 2.79476C23.0049 2.50885 23.3242 2.28963 23.7039 2.13805C24.0851 1.98506 24.5264 1.90857 25.0295 1.90857C25.5095 1.90857 25.9321 1.97154 26.3 2.09794C26.6662 2.22433 26.9736 2.41883 27.2195 2.68282C27.4667 2.94541 27.6525 3.2761 27.7777 3.67675C27.903 4.0788 27.9667 4.55081 27.9667 5.09605L27.9663 5.09652ZM26.6124 5.16135C26.6124 4.83066 26.5856 4.52982 26.5337 4.25884C26.4817 3.98785 26.3934 3.75511 26.2677 3.56248C26.1425 3.36985 25.9754 3.22013 25.7663 3.11379C25.5573 3.00931 25.2964 2.95614 24.984 2.95614C24.668 2.95614 24.4039 3.01584 24.1935 3.13384C23.9813 3.25185 23.8091 3.41136 23.6784 3.60912C23.5482 3.80688 23.4562 4.03776 23.4025 4.30221C23.3492 4.56807 23.3223 4.84745 23.3223 5.14316C23.3223 5.48737 23.3492 5.79614 23.4007 6.07039C23.4526 6.34464 23.5409 6.57878 23.6648 6.77515C23.7886 6.96964 23.9539 7.11749 24.163 7.22057C24.372 7.32178 24.6343 7.37356 24.9503 7.37356C25.2663 7.37356 25.5305 7.31525 25.7408 7.19725C25.9531 7.08111 26.1252 6.9216 26.2559 6.72011C26.3861 6.51908 26.4781 6.28448 26.5318 6.01722C26.5856 5.7495 26.612 5.46405 26.612 5.16135H26.6124ZM34.3561 8.1562C34.3561 8.19118 34.3493 8.22103 34.3361 8.24575C34.3229 8.27047 34.2928 8.29053 34.2441 8.30732C34.194 8.32224 34.1239 8.33391 34.0283 8.34044C33.9331 8.34696 33.8042 8.35023 33.6421 8.35023C33.505 8.35023 33.3962 8.34696 33.3142 8.34044C33.2323 8.33391 33.1671 8.32224 33.1202 8.30405C33.0733 8.28586 33.0401 8.26441 33.0201 8.23596C33.0018 8.20751 32.985 8.17439 32.9718 8.13614L32.4003 6.72524C32.3315 6.56573 32.265 6.42254 32.1995 6.29987C32.1343 6.17534 32.0606 6.07226 31.9804 5.98924C31.9003 5.90621 31.8065 5.84465 31.7013 5.80127C31.5975 5.75976 31.4754 5.73831 31.3383 5.73831H30.9353V8.14641C30.9353 8.17812 30.9253 8.20797 30.9035 8.23269C30.8816 8.25928 30.8465 8.28073 30.7983 8.29752C30.75 8.31245 30.6844 8.32598 30.6025 8.33577C30.5223 8.34557 30.4171 8.3507 30.2914 8.3507C30.1676 8.3507 30.0642 8.34557 29.9804 8.33577C29.8966 8.32598 29.8315 8.31245 29.7832 8.29752C29.7345 8.28073 29.6994 8.25928 29.6812 8.23456C29.6612 8.20797 29.6512 8.17812 29.6512 8.14641V2.42256C29.6512 2.27984 29.6881 2.17676 29.7614 2.11333C29.8351 2.05036 29.9253 2.01864 30.0323 2.01864H31.674C31.8397 2.01864 31.9782 2.02191 32.0852 2.02844C32.1922 2.03497 32.291 2.04336 32.3793 2.05176C32.6334 2.08814 32.8625 2.14971 33.0665 2.23786C33.2705 2.32415 33.4445 2.43888 33.5865 2.58021C33.7286 2.72153 33.8375 2.88758 33.9126 3.08067C33.9877 3.2733 34.0246 3.49438 34.0246 3.74531C34.0246 3.95473 33.9977 4.14736 33.9445 4.3204C33.8894 4.49484 33.8106 4.64969 33.7054 4.78589C33.6016 4.92208 33.4732 5.04008 33.3192 5.13989C33.1653 5.24111 32.99 5.32086 32.7942 5.3843C32.8894 5.42907 32.9782 5.48411 33.0615 5.54894C33.1453 5.61377 33.2236 5.69353 33.2974 5.78681C33.3707 5.8801 33.4413 5.98457 33.5064 6.10444C33.5715 6.22244 33.6353 6.35724 33.6967 6.50649L34.2332 7.75135C34.2814 7.87449 34.3151 7.96404 34.3302 8.02234C34.347 8.07878 34.3552 8.12355 34.3552 8.15713L34.3561 8.1562ZM32.6913 3.87684C32.6913 3.66929 32.6444 3.49298 32.5492 3.35166C32.454 3.20847 32.2983 3.10726 32.0829 3.04896C32.0178 3.03216 31.944 3.0205 31.8607 3.01071C31.7769 3.00091 31.6617 2.99578 31.5146 2.99578H30.9362V4.78075H31.5934C31.7773 4.78075 31.9358 4.7593 32.0733 4.71452C32.2122 4.67115 32.3256 4.60958 32.4176 4.52982C32.5096 4.45193 32.5779 4.35538 32.6234 4.24578C32.6685 4.13617 32.6917 4.01304 32.6917 3.87684H32.6913ZM39.6494 7.81712C39.6494 7.9118 39.6462 7.99016 39.6376 8.05499C39.6294 8.11795 39.6176 8.16973 39.6007 8.20797C39.5839 8.24762 39.5638 8.27607 39.5388 8.29426C39.5156 8.31245 39.4869 8.32084 39.4586 8.32084H36.2792C36.1722 8.32084 36.082 8.28913 36.0082 8.22616C35.9349 8.1632 35.898 8.06012 35.898 7.91693V2.42256C35.898 2.27984 35.9349 2.17676 36.0082 2.11333C36.082 2.05036 36.1722 2.01864 36.2792 2.01864H39.4436C39.4718 2.01864 39.4987 2.02704 39.5224 2.04336C39.5442 2.06016 39.5643 2.08814 39.5807 2.12825C39.5957 2.16976 39.6089 2.22154 39.6176 2.2845C39.6258 2.34933 39.6294 2.42909 39.6294 2.52704C39.6294 2.61845 39.6262 2.69495 39.6176 2.75978C39.6094 2.82274 39.5975 2.87452 39.5807 2.91276C39.5638 2.95241 39.5438 2.98086 39.5224 2.99905C39.4992 3.01724 39.4723 3.02563 39.4436 3.02563H37.1817V4.56107H39.0875C39.1176 4.56107 39.1444 4.56947 39.1676 4.58766C39.1927 4.60585 39.2127 4.63243 39.2296 4.67068C39.2464 4.70706 39.2578 4.75697 39.2665 4.8218C39.2747 4.88477 39.2783 4.96126 39.2783 5.05128C39.2783 5.14596 39.2751 5.22432 39.2665 5.28542C39.2583 5.34698 39.2464 5.39689 39.2296 5.43327C39.2127 5.47152 39.1927 5.4981 39.1676 5.51303C39.1444 5.52982 39.1176 5.53775 39.0875 5.53775H37.1817V7.31292H39.4586C39.4887 7.31292 39.5156 7.32132 39.5388 7.33951C39.5638 7.3577 39.5839 7.38615 39.6007 7.4258C39.6176 7.46404 39.6289 7.51535 39.6376 7.57878C39.6458 7.64361 39.6494 7.7215 39.6494 7.81665V7.81712Z" fill="white"/>
<path d="M8.5 33.5547V39.3588H9.01913L13.9777 33.5547H8.5Z" fill="white"/>
<path d="M44.3891 26.7842C43.4974 28.002 42.0976 28.7189 40.6112 28.7189C39.1249 28.7189 37.7251 28.002 36.8334 26.7842C35.9418 28.002 34.542 28.7189 33.0556 28.7189C31.5693 28.7189 30.1694 28.002 29.2778 26.7842C28.3862 28.002 26.9863 28.7189 25.5 28.7189C24.0136 28.7189 22.6143 28.002 21.7222 26.7842C20.8306 28.002 19.4307 28.7189 17.9444 28.7189C16.458 28.7189 15.0582 28.002 14.1666 26.7842C13.2749 28.002 11.8751 28.7189 10.3887 28.7189C8.9024 28.7189 7.50257 28.002 6.61094 26.7842C5.51621 28.28 3.67739 28.9959 1.88867 28.6223V49.0331C1.88867 49.5672 2.31172 50.0005 2.83312 50.0005H31.1663V33.5556C31.1663 32.487 32.0119 31.6209 33.0552 31.6209H40.6108C41.6541 31.6209 42.4997 32.487 42.4997 33.5556V50.0005H48.1664C48.6878 50.0005 49.1109 49.5672 49.1109 49.0331V28.6223C47.3212 29.0108 45.4747 28.2926 44.3886 26.7842H44.3891ZM23.6111 45.1637H7.55539C7.03398 45.1637 6.61094 44.7304 6.61094 44.1964C6.61094 43.6623 7.03398 43.229 7.55539 43.229H23.6111C24.1325 43.229 24.5555 43.6623 24.5555 44.1964C24.5555 44.7304 24.1325 45.1637 23.6111 45.1637ZM24.5555 39.3597C24.5555 40.4282 23.7099 41.2944 22.6666 41.2944H8.49984C7.45657 41.2944 6.61094 40.4282 6.61094 39.3597V33.5556C6.61094 32.487 7.45657 31.6209 8.49984 31.6209H22.6666C23.7099 31.6209 24.5555 32.487 24.5555 33.5556V39.3597Z" fill="white"/>
<path d="M19.125 37.0952C18.9073 37.3723 18.5585 37.5043 18.217 37.4395C17.8754 37.3746 17.5963 37.1228 17.4902 36.7841C17.3841 36.4455 17.4679 36.0747 17.7083 35.8182L19.6446 33.5547H16.4806L11.5225 39.3587H22.6669V33.5547H22.1473L19.125 37.0952Z" fill="white"/>
<path d="M49.7345 19.577C49.5728 19.2487 49.2436 19.0425 48.8843 19.0449H45.3333C44.8119 19.0449 44.3888 18.6116 44.3888 18.0775C44.3888 17.5435 44.8119 17.1102 45.3333 17.1102H48.1666C48.688 17.1102 49.1111 16.6769 49.1111 16.1428V13.2408C49.1111 12.7067 48.688 12.2734 48.1666 12.2734H2.83336C2.31195 12.2734 1.88891 12.7067 1.88891 13.2408V16.1428C1.88891 16.6769 2.31195 17.1102 2.83336 17.1102H41.5555C42.0769 17.1102 42.4999 17.5435 42.4999 18.0775C42.4999 18.6116 42.0769 19.0449 41.5555 19.0449H2.11569C1.75685 19.0425 1.42716 19.2487 1.2655 19.577L0.103829 21.9469C3.35483e-06 22.2272 3.35256e-06 22.237 3.35256e-06 23.8816C-0.00136278 24.792 0.414852 25.6507 1.12387 26.2001C1.8329 26.7496 2.75276 26.9263 3.60796 26.6773C4.8475 26.286 5.68676 25.1036 5.66672 23.7752V21.9469C5.66672 21.4128 6.08977 20.9795 6.61117 20.9795C7.13258 20.9795 7.55563 21.4128 7.55563 21.9469V23.8816C7.57748 24.9184 8.13805 25.8643 9.02558 26.3634C9.91311 26.8624 10.9933 26.8382 11.8589 26.3004C12.7246 25.7626 13.2442 24.7925 13.2223 23.7556V21.9469C13.2223 21.4128 13.6454 20.9795 14.1668 20.9795C14.6882 20.9795 15.1112 21.4128 15.1112 21.9469V23.8816C15.1099 24.792 15.5261 25.6507 16.2351 26.2001C16.9441 26.7496 17.864 26.9263 18.7192 26.6773C19.9587 26.286 20.798 25.1036 20.778 23.7752V21.9469C20.778 21.4128 21.201 20.9795 21.7224 20.9795C22.2438 20.9795 22.6669 21.4128 22.6669 21.9469V23.8816C22.6887 24.9184 23.2493 25.8643 24.1368 26.3634C25.0244 26.8624 26.1045 26.8382 26.9702 26.3004C27.8359 25.7626 28.3554 24.7925 28.3336 23.7556V21.9469C28.3336 21.4128 28.7566 20.9795 29.278 20.9795C29.7994 20.9795 30.2225 21.4128 30.2225 21.9469V23.8816C30.2211 24.792 30.6373 25.6507 31.3464 26.2001C32.0554 26.7496 32.9752 26.9263 33.8304 26.6773C35.07 26.286 35.9092 25.1036 35.8892 23.7752V21.9469C35.8892 21.4128 36.3123 20.9795 36.8337 20.9795C37.3551 20.9795 37.7781 21.4128 37.7781 21.9469V23.7654C37.7544 25.1013 38.6046 26.2892 39.856 26.6675C40.7267 26.9147 41.6602 26.7221 42.3692 26.1488C43.0782 25.5756 43.4781 24.6903 43.4448 23.7654V21.9469C43.4448 21.4128 43.8679 20.9795 44.3893 20.9795C44.9107 20.9795 45.3337 21.4128 45.3337 21.9469V23.8816C45.3324 24.792 45.7486 25.6507 46.4576 26.2001C47.1666 26.7496 48.0865 26.9263 48.9417 26.6773C50.1812 26.286 51.0205 25.1036 51.0005 23.7752C51.0005 22.3727 51.0005 22.2566 50.8966 21.9856L49.7354 19.577H49.7345Z" fill="white"/>
</svg>
