<svg width="48" height="49" viewBox="0 0 48 49" fill="none" xmlns="http://www.w3.org/2000/svg">
<path d="M35.2323 22.0081L40.2194 13.2877H30.9286C30.4792 13.2877 30.115 12.9159 30.115 12.4572C30.115 11.9986 30.4792 11.6267 30.9286 11.6267H40.6913V9.1352C40.6913 8.67652 40.327 8.30469 39.8777 8.30469H23.6065C23.1572 8.30469 22.793 8.67652 22.793 9.1352V11.6267H26.8608C27.3101 11.6267 27.6743 11.9986 27.6743 12.4572C27.6743 12.9159 27.3101 13.2877 26.8608 13.2877H23.2648L28.252 22.0081C28.3964 22.2635 28.6627 22.4216 28.9516 22.4233H34.5326C34.8215 22.4216 35.0878 22.2635 35.2323 22.0081Z" fill="white"/>
<path d="M44.7585 0.830508C44.7585 0.371831 44.3943 0 43.9449 0H42.3178V2.49152C42.3178 2.9502 41.9536 3.32203 41.5043 3.32203C41.055 3.32203 40.6907 2.9502 40.6907 2.49152V0H39.0636V2.49152C39.0636 2.9502 38.6993 3.32203 38.25 3.32203C37.8007 3.32203 37.4365 2.9502 37.4365 2.49152V0H35.8094V2.49152C35.8094 2.9502 35.4451 3.32203 34.9958 3.32203C34.5465 3.32203 34.1822 2.9502 34.1822 2.49152V0H32.5551V2.49152C32.5551 2.9502 32.1909 3.32203 31.7416 3.32203C31.2922 3.32203 30.928 2.9502 30.928 2.49152V0H29.3009V2.49152C29.3009 2.9502 28.9366 3.32203 28.4873 3.32203C28.038 3.32203 27.6738 2.9502 27.6738 2.49152V0H26.0466V2.49152C26.0466 2.9502 25.6824 3.32203 25.2331 3.32203C24.7838 3.32203 24.4195 2.9502 24.4195 2.49152V0H22.7924V2.49152C22.7924 2.9502 22.4282 3.32203 21.9788 3.32203C21.5295 3.32203 21.1653 2.9502 21.1653 2.49152V0H19.5382C19.0889 0 18.7246 0.371831 18.7246 0.830508V5.81356C18.7246 6.27223 19.0889 6.64407 19.5382 6.64407H43.9449C44.3943 6.64407 44.7585 6.27223 44.7585 5.81356V0.830508Z" fill="white"/>
<path d="M29.3008 39.0339L31.7415 40.6949L34.1821 39.0339V35.8779C29.3008 39.1917 29.6425 39.0339 29.3008 39.0339Z" fill="white"/>
<path d="M34.1821 31.7256C29.3008 35.0476 29.6425 34.8815 29.3008 34.8815V37.2069C34.117 33.9264 33.8079 34.051 34.1821 34.051V31.7256Z" fill="white"/>
<path d="M34.1821 27.5732C29.3008 30.8953 29.6425 30.7292 29.3008 30.7292V33.0546C34.1089 29.7824 33.8079 29.8987 34.1821 29.8987V27.5732Z" fill="white"/>
<path d="M34.1821 24.085H29.3008V28.9019C34.1252 25.6214 33.8079 25.746 34.1821 25.746V24.085Z" fill="white"/>
<path d="M25.4694 37.9622C25.7884 38.2879 26.3057 38.2879 26.6247 37.9622C26.9437 37.6365 26.9437 37.1085 26.6247 36.7829L20.1162 30.1388C19.9098 29.9281 19.6091 29.8459 19.3272 29.923C19.0453 30.0001 18.8251 30.2249 18.7495 30.5126C18.674 30.8004 18.7546 31.1075 18.961 31.3181L25.4694 37.9622Z" fill="white"/>
<path d="M38.0146 37.9622L44.5231 31.3181C44.7294 31.1075 44.81 30.8004 44.7345 30.5126C44.659 30.2249 44.4388 30.0001 44.1569 29.923C43.875 29.8459 43.5742 29.9281 43.3678 30.1388L36.8594 36.7829C36.5404 37.1085 36.5404 37.6365 36.8594 37.9622C37.1784 38.2879 37.6956 38.2879 38.0146 37.9622Z" fill="white"/>
<path d="M17.0977 29.0683C17.5471 29.0683 17.9113 28.6964 17.9113 28.2377C17.9113 27.7791 17.5471 27.4072 17.0977 27.4072C16.6484 27.4072 16.2842 27.7791 16.2842 28.2377C16.2842 28.6964 16.6484 29.0683 17.0977 29.0683Z" fill="white"/>
<path d="M46.3858 29.0683C46.8351 29.0683 47.1994 28.6964 47.1994 28.2377C47.1994 27.7791 46.8351 27.4072 46.3858 27.4072C45.9365 27.4072 45.5723 27.7791 45.5723 28.2377C45.5723 28.6964 45.9365 29.0683 46.3858 29.0683Z" fill="white"/>
<path d="M26.5517 32.2075C26.9006 31.9223 26.9588 31.4031 26.6819 31.0448L23.4276 26.8923C23.2576 26.6311 22.9579 26.49 22.653 26.5274C22.348 26.5649 22.0897 26.7745 21.9851 27.0694C21.8806 27.3642 21.9476 27.6941 22.1585 27.9221L25.4127 32.0746C25.6921 32.4309 26.2008 32.4902 26.5517 32.2075Z" fill="white"/>
<path d="M40.0561 26.8916L36.8019 31.0441C36.525 31.4024 36.5831 31.9216 36.932 32.2069C37.283 32.4895 37.7916 32.4302 38.071 32.074L41.3252 27.9214C41.604 27.5654 41.5496 27.0464 41.2032 26.7587C41.0341 26.6203 40.8179 26.5565 40.6025 26.5815C40.3872 26.6064 40.1905 26.7181 40.0561 26.8916Z" fill="white"/>
<path d="M4.01562 11.8014C6.0726 12.876 6.92533 15.4214 5.94376 17.5568C4.29157 21.2583 5.75922 25.6327 9.28749 27.5229C11.341 28.6006 12.1926 31.1426 11.2156 33.2783C10.8629 34.1223 11.2472 35.0983 12.0739 35.4584C12.9007 35.8185 13.8568 35.4262 14.2095 34.5822C15.8617 30.8807 14.3941 26.5063 10.8658 24.6161C8.82489 23.5267 7.98588 20.9901 8.96206 18.8607C10.6068 15.1609 9.14503 10.7935 5.62647 8.89458C3.55719 7.8318 2.68901 5.28332 3.66579 3.13916C4.02159 2.30874 3.65956 1.34046 2.85223 0.963227C2.44978 0.775856 1.98994 0.763825 1.57861 0.929905C1.16728 1.09598 0.839914 1.42586 0.671896 1.84357C-0.970746 5.5431 0.495126 9.90855 4.01562 11.8014Z" fill="white"/>
<path d="M19.4246 15.1652C19.2095 14.6133 18.7224 14.2204 18.1466 14.1347C17.5709 14.0489 16.9941 14.2831 16.6334 14.7492C16.2728 15.2153 16.1831 15.8424 16.3982 16.3943C17.4558 19.0768 16.3168 20.1067 16.1623 20.2396C15.4888 20.7812 15.3426 21.7634 15.828 22.4848C16.3135 23.2062 17.264 23.4193 18.0009 22.9719C18.1473 22.8806 21.5155 20.5053 19.4246 15.1652Z" fill="white"/>
<path d="M6.04119 34.2418C6.6225 34.3145 7.19765 34.0651 7.54998 33.5875C7.90231 33.1099 7.97829 32.4767 7.7493 31.9265C7.52031 31.3762 7.02115 30.9924 6.43983 30.9197C3.62492 30.5958 3.26695 29.0677 3.26695 28.885C3.17934 27.9676 2.37982 27.2965 1.48119 27.3859C0.582558 27.4754 -0.0749009 28.2915 0.0127159 29.2089C0.0127159 29.3833 0.452038 33.5441 6.04119 34.2418Z" fill="white"/>
<path d="M47.1991 38.2031H40.2839C39.6458 38.22 39.0763 38.6163 38.8276 39.2163C37.5585 41.9404 31.229 44.0167 23.6059 44.0167C15.9829 44.0167 9.65337 41.9404 8.38422 39.2163C8.1355 38.6163 7.56604 38.22 6.92795 38.2031H0.0126953V48.9997H47.1991V38.2031ZM4.08049 46.5082H3.26693C2.81762 46.5082 2.45337 46.1364 2.45337 45.6777C2.45337 45.219 2.81762 44.8472 3.26693 44.8472H4.08049C4.52981 44.8472 4.89405 45.219 4.89405 45.6777C4.89405 46.1364 4.52981 46.5082 4.08049 46.5082ZM13.0296 46.5082H7.33473C6.88541 46.5082 6.52117 46.1364 6.52117 45.6777C6.52117 45.219 6.88541 44.8472 7.33473 44.8472H13.0296C13.479 44.8472 13.8432 45.219 13.8432 45.6777C13.8432 46.1364 13.479 46.5082 13.0296 46.5082Z" fill="white"/>
</svg>
